<?xml version="1.0" standalone="no"?>
<!DOCTYPE svg PUBLIC "-//W3C//DTD SVG 20010904//EN"
 "http://www.w3.org/TR/2001/REC-SVG-20010904/DTD/svg10.dtd">
<svg version="1.0" xmlns="http://www.w3.org/2000/svg"
 width="1200.000000pt" height="1200.000000pt" viewBox="0 0 1200.000000 1200.000000"
 preserveAspectRatio="xMidYMid meet">

<g transform="translate(0.000000,1200.000000) scale(0.100000,-0.100000)"
fill="#000000" stroke="none">
<path d="M200 6000 l0 -5800 5800 0 5800 0 0 5800 0 5800 -5800 0 -5800 0 0
-5800z m4208 3363 l112 -117 0 -1353 c0 -744 3 -1353 6 -1353 3 0 666 662
1472 1470 l1467 1471 482 -1 483 0 14 -22 c34 -53 146 -328 146 -359 0 -32
-71 -105 -1072 -1105 -590 -588 -1121 -1117 -1180 -1174 -60 -57 -108 -110
-108 -118 0 -8 574 -846 1276 -1864 967 -1401 1275 -1855 1272 -1872 -3 -12
-44 -97 -92 -189 l-87 -167 -492 0 c-271 0 -497 4 -503 8 -5 4 -498 729 -1093
1612 -596 883 -1089 1611 -1096 1619 -11 11 -89 -60 -454 -409 l-441 -422 0
-1091 0 -1092 -112 -112 -113 -113 -354 0 -354 0 -108 107 -109 107 0 3210 0
3211 113 118 112 117 350 0 350 0 113 -117z"/>
</g>
</svg>
